<svg width="623" height="406" viewBox="0 0 623 406" fill="none" xmlns="http://www.w3.org/2000/svg">
<path d="M236.133 405.159C219.686 404.217 201.957 401.065 188.443 396.679C170.965 391.007 158.893 383.83 146.587 371.797C133.554 359.053 125.947 346.739 111.713 315.345C108.241 307.688 103.644 298.205 101.498 294.273C94.3382 281.156 82.031 266.98 72.3654 260.715C63.7637 255.14 59.0677 253.388 47.7384 251.524L43.8619 250.886L49.9016 250.288C58.7668 249.41 83.0098 250.257 91.1198 251.728C108.069 254.802 122.524 261 131.695 269.124C141.782 278.061 144.871 283.743 153.551 309.324C162.183 334.763 174.087 354.034 191.941 371.471C206.862 386.044 223.558 396.233 242.615 402.397C247.152 403.865 251.009 405.197 251.186 405.358C251.52 405.662 242.933 405.548 236.133 405.159ZM233.278 393.585C226.56 391.982 217.343 387.794 210.04 383.027C203.262 378.603 190.914 366.752 184.605 358.617C171.973 342.328 166.595 330.925 155.856 297.66C151.253 283.402 148.479 276.059 146.004 271.576C145.435 270.547 160.809 277.297 178.762 285.958C188.995 290.896 200.334 296.11 203.958 297.545C220.605 304.135 236.596 308.175 249.46 309.042C274.141 310.705 301.482 299.133 323.359 277.763C332.307 269.024 342.109 256.764 355.889 237.079C373.512 211.905 390.619 194.109 411.347 179.389C427.91 167.627 437.626 162.459 455.926 155.68C463.269 152.96 458.677 153.656 449.563 156.645C420.972 166.02 393.323 184.188 371.824 207.729C364.832 215.384 358.387 223.491 336.18 252.569C322.408 270.601 305.346 285.121 287.278 294.186C276.942 299.371 265.465 301.278 251.057 300.204C230.599 298.679 210.443 291.794 172.621 273.415C138.767 256.963 113.893 248.854 89.0529 246.17C69.6587 244.075 54.9161 246.007 34.3618 253.341C17.4693 259.367 6.16755 266.985 0.986491 275.835C-0.613 278.568 -0.155454 258.856 1.5542 251.377C4.18463 239.871 10.2153 226.966 17.3565 217.561C22.1021 211.311 32.927 201.028 40.3418 195.725C47.4594 190.635 62.2388 183.25 71.173 180.319C96.441 172.028 118.738 174.442 139.119 187.675C142.946 190.16 149.648 195.532 154.013 199.613C161.468 206.583 166.158 211.664 186.507 234.821C201.619 252.017 219.556 268.551 229.931 274.845C236.973 279.118 250.536 285.543 257.066 287.699C262.785 289.588 265.652 290.065 272.967 290.343C281.408 290.665 282.289 290.554 289.248 288.294C297.618 285.576 304.393 282.109 309.241 278.062C313.083 274.854 313.021 275.11 309.18 277.953C304.987 281.057 295.691 283.737 289.415 285.295C279.087 287.859 262.319 286.772 250.906 282.798L247.847 281.733L252.825 280.782C259.109 279.582 262.307 277.995 267.412 273.539C275.398 266.57 282.674 254.245 287.606 239.336C290.941 229.257 291.945 224.554 294.617 206.504C297.632 186.138 299.55 176.571 302.841 165.471C311.145 137.466 324.858 115.818 348.612 93.2162C358.098 84.1901 360.785 81.9317 371.825 73.7065C392.071 58.6219 424.681 41.3423 455.926 29.1416C488.636 16.3689 513.417 10.2998 568.166 1.65233C575.531 0.489061 581.287 -0.225431 580.958 0.0645761C580.629 0.354583 577.881 1.32309 574.853 2.21681C568.657 4.04497 559.802 7.34945 548.937 11.8881C544.899 13.5748 537.757 16.5397 533.067 18.4768C513.671 26.4869 501.682 34.4632 485.193 50.3269C474.714 60.4092 471.709 64.0171 477.44 59.6362C489.38 50.5095 509.928 40.2189 531.129 32.7489C541.913 28.9491 563.22 23.3235 576.654 20.7293C583.349 19.4365 600.844 14.6331 601.617 13.8758C601.865 13.6329 600.846 13.6289 599.354 13.8673C597.861 14.1056 592.454 14.8203 587.337 15.4558C577.17 16.7183 561.269 19.6109 551.936 21.8956C537.795 25.3573 515.059 33.8338 504.963 39.4084C502.298 40.8799 500.117 41.9272 500.117 41.7358C500.117 41.1893 516.393 30.9103 520.275 29.0052C534.549 21.9996 556.791 15.374 576.871 12.1455C586.572 10.5857 607.373 9.02761 617.573 9.0967L623 9.13339L612.682 12.4038C589.605 19.7184 566.573 33.3853 542.579 54.0006C524.124 69.8578 510.332 86.5348 500.357 105.055C490.543 123.277 485.724 143.91 490.039 149.234C492.222 151.929 492.005 152.296 488.545 151.759C476.843 149.943 446.333 160.691 425.895 173.829C405.13 187.178 387.682 210.003 372.371 243.852C367.958 253.607 364.912 261.106 354.336 288.253C338.605 328.631 326.703 349.102 309.049 366.142C286.11 388.284 256.3 399.081 233.278 393.585Z" fill="url(#paint0_linear_217_138)"/>
<defs>
<linearGradient id="paint0_linear_217_138" x1="623" y1="3.44739" x2="255.328" y2="568.286" gradientUnits="userSpaceOnUse">
<stop stop-color="#0430A2"/>
<stop offset="0.0907052" stop-color="#032886"/>
<stop offset="0.352942" stop-color="#03216F"/>
<stop offset="0.744237" stop-color="#021443"/>
<stop offset="0.915858" stop-color="#01123C"/>
</linearGradient>
</defs>
</svg>
